<?xml version="1.0" encoding="UTF-8"?>
<svg id="Layer_1" xmlns="http://www.w3.org/2000/svg" version="1.1" viewBox="0 0 800 800">
  <!-- Generator: Adobe Illustrator 29.6.1, SVG Export Plug-In . SVG Version: 2.1.1 Build 9)  -->
  <defs>
    <style>
      .st0 {
        fill: #00f0e9;
      }

      .st1 {
        fill: #ff0b53;
      }

      .st2 {
        fill: #fff;
      }
    </style>
  </defs>
  <path class="st1" d="M683.63,261.85c-79.6,0-144.13-64.53-144.13-144.13h-108.1v418.38c0,48.65-39.43,88.08-88.08,88.08s-88.08-39.44-88.08-88.08,39.43-88.08,88.08-88.08c9.12,0,19.45,1.39,27.73,3.96v-110.12c-9.06-1.28-18.32-1.94-27.73-1.94-108.35,0-196.18,87.83-196.18,196.18s87.83,196.18,196.18,196.18,196.18-87.83,196.18-196.18v-221.44c39.3,32.05,89.47,51.28,144.13,51.28v-104.1Z"/>
  <path class="st0" d="M653.01,231.23c-79.6,0-144.13-64.53-144.13-144.13h-108.1v418.38c0,48.65-39.44,88.08-88.08,88.08s-88.08-39.44-88.08-88.08,39.43-88.08,88.08-88.08c9.12,0,19.45,1.39,27.73,3.96v-110.11c-9.06-1.28-18.32-1.95-27.73-1.95-108.35,0-196.18,87.83-196.18,196.18s87.83,196.18,196.18,196.18,196.18-87.83,196.18-196.18v-221.44c39.3,32.05,89.47,51.28,144.13,51.28v-104.1Z"/>
  <path class="st2" d="M653.01,258.56c-34.84-7.54-64.99-27.67-85.44-55.4-27.73-20.45-47.86-50.6-55.4-85.44h-80.77v418.38c0,48.65-39.43,88.08-88.08,88.08-32.18,0-60.31-17.26-75.68-43.02-25.76-15.37-43.02-43.51-43.02-75.68,0-48.65,39.43-88.08,88.08-88.08,9.12,0,19.45,1.39,27.73,3.96v-81.4c-107.01,1.55-193.29,88.76-193.29,196.14,0,46.37,16.1,88.98,43,122.56,33.58,26.9,76.18,43,122.56,43,108.35,0,196.18-87.83,196.18-196.18v-221.44c39.3,32.05,89.47,51.28,144.13,51.28v-76.77Z"/>
</svg>